<svg id="Layer_1" data-name="Layer 1" xmlns="http://www.w3.org/2000/svg" viewBox="0 0 261.63 194.5"><defs><style>.cls-1,.cls-2{fill:#52bfa7;stroke:#52bfa7;stroke-miterlimit:10;}.cls-2{fill-rule:evenodd;}</style></defs><circle class="cls-1" cx="180.21" cy="97.25" r="4.83"/><circle class="cls-1" cx="115.46" cy="97.25" r="4.83"/><circle class="cls-1" cx="147.84" cy="153.33" r="4.83"/><circle class="cls-1" cx="147.83" cy="41.17" r="4.83"/><circle class="cls-1" cx="83.08" cy="41.17" r="4.83"/><path class="cls-2" d="M180.21,70.83c-15.23,0-16.58,10.68-32.37,10.68a29.85,29.85,0,0,1-4.54-.33,29.23,29.23,0,0,1,2-4.1c4.06-7,8.66-9.35,13.2-11.73a26.42,26.42,0,0,0-10.65-50.6c-15.23,0-16.57,10.68-32.37,10.68S98.31,14.75,83.08,14.75a26.42,26.42,0,0,0,0,52.84c15.23,0,16.58-10.68,32.38-10.68a29.81,29.81,0,0,1,4.53.33,28.63,28.63,0,0,1-2,4.09c-4.06,7-8.66,9.36-13.2,11.74a26.42,26.42,0,0,0,10.65,50.6c15.23,0,16.58-10.68,32.37-10.68a29.85,29.85,0,0,1,4.54.33,29.86,29.86,0,0,1-2,4.11c-7.9,13.68-17.82,9.5-25.43,22.7a26.42,26.42,0,1,0,45.76,26.41c7.61-13.19-1-19.69,6.94-33.37,4.06-7,8.66-9.36,13.2-11.74a26.42,26.42,0,0,0-10.65-50.6ZM115.46,47.24c-10.78,0-17.09,4-21.69,6.92-3.71,2.34-6,3.76-10.69,3.76a16.75,16.75,0,0,1,0-33.5c4.74,0,7,1.42,10.69,3.76,4.6,2.92,10.91,6.92,21.69,6.92s17.08-4,21.69-6.92c3.7-2.34,5.94-3.76,10.68-3.76a16.75,16.75,0,1,1,0,33.5c-4.74,0-7-1.42-10.68-3.76-4.61-2.92-10.92-6.92-21.69-6.92Zm25.33,19.43a39.13,39.13,0,0,0-3.89,5.58,40,40,0,0,0-2.69,5.62c-3.77-2.17-6.94-4.78-11.71-6.12a39.13,39.13,0,0,0,3.89-5.58,40,40,0,0,0,2.69-5.62c3.77,2.17,6.94,4.77,11.71,6.12Zm28.49,61.66c-5.38,9.33-5.08,16.79-4.85,22.24.18,4.39.29,7-2.09,11.14a16.75,16.75,0,1,1-29-16.75c2.37-4.11,4.72-5.34,8.6-7.37,4.83-2.53,11.45-6,16.83-15.33a37.58,37.58,0,0,0,2.69-5.64c3.78,2.18,7,4.78,11.72,6.13a39.13,39.13,0,0,0-3.89,5.58ZM180.21,114c-4.74,0-7-1.42-10.69-3.76-4.6-2.92-10.91-6.92-21.69-6.92s-17.08,4-21.68,6.92c-3.71,2.34-6,3.76-10.69,3.76a16.75,16.75,0,1,1,0-33.5c4.74,0,7,1.42,10.69,3.76,4.6,2.92,10.91,6.92,21.68,6.92s17.09-4,21.69-6.92c3.71-2.34,5.95-3.76,10.69-3.76a16.75,16.75,0,1,1,0,33.5Z"/></svg>