<svg id="Layer_1" data-name="Layer 1" xmlns="http://www.w3.org/2000/svg" viewBox="0 0 261.63 194.5"><defs><style>.cls-1{fill:#52bfa7;stroke:#52bfa7;stroke-miterlimit:10;}</style></defs><path class="cls-1" d="M49,131.32a2.91,2.91,0,0,0,2.31,2.59l10.23,2.18A43.42,43.42,0,0,0,63,141.15l-7.75,6.91a2.87,2.87,0,0,0-.68,3.39,57.5,57.5,0,0,0,4.69,8.05,3,3,0,0,0,3.31,1.11l9.94-3.15a47.65,47.65,0,0,0,3.79,3.73L73.05,171a2.88,2.88,0,0,0,1.12,3.27,58.35,58.35,0,0,0,8.18,4.61,3,3,0,0,0,3.44-.67l7-7.63A48.17,48.17,0,0,0,98,171.92L100.16,182a2.92,2.92,0,0,0,2.63,2.27c1.56.12,3.13.23,4.72.23s3.16-.11,4.72-.23a2.94,2.94,0,0,0,2.64-2.27l2.2-10.08a47,47,0,0,0,5.15-1.36l7,7.63a3,3,0,0,0,3.44.67,59.83,59.83,0,0,0,8.17-4.61A2.88,2.88,0,0,0,142,171l-3.21-9.79a47.65,47.65,0,0,0,3.79-3.73l9.94,3.16a3,3,0,0,0,3.32-1.11,57,57,0,0,0,4.68-8.06,2.85,2.85,0,0,0-.68-3.38l-7.74-6.91a46.22,46.22,0,0,0,1.37-5.07l10.23-2.18a2.91,2.91,0,0,0,2.31-2.59c.12-1.54.23-3.08.23-4.65s-.11-3.12-.23-4.65a2.91,2.91,0,0,0-2.31-2.6l-10.23-2.17a45.62,45.62,0,0,0-1.37-5.07l7.74-6.91a2.87,2.87,0,0,0,.68-3.39,58.5,58.5,0,0,0-4.69-8,2.94,2.94,0,0,0-3.31-1.11l-9.94,3.15a47.65,47.65,0,0,0-3.79-3.73l3.2-9.79a2.88,2.88,0,0,0-1.12-3.27,59.37,59.37,0,0,0-8.18-4.61,3,3,0,0,0-3.44.67l-7,7.62a49.28,49.28,0,0,0-5.15-1.35l-2.21-10.08a2.93,2.93,0,0,0-2.63-2.27,60.71,60.71,0,0,0-9.44,0,2.92,2.92,0,0,0-2.64,2.27L97.94,81.41a49.76,49.76,0,0,0-5.14,1.35l-7-7.62a3,3,0,0,0-3.43-.67,59.37,59.37,0,0,0-8.18,4.61,2.88,2.88,0,0,0-1.12,3.27l3.2,9.79a47.65,47.65,0,0,0-3.79,3.73l-9.94-3.15a2.94,2.94,0,0,0-3.31,1.11,57.5,57.5,0,0,0-4.69,8,2.87,2.87,0,0,0,.68,3.39L63,112.18a43.58,43.58,0,0,0-1.38,5.07l-10.23,2.17A2.91,2.91,0,0,0,49,122c-.12,1.54-.23,3.09-.23,4.66s.11,3.11.23,4.65Zm5.7-6.7,10-2.13A2.92,2.92,0,0,0,67,120.13a39.75,39.75,0,0,1,2.11-7.78,2.87,2.87,0,0,0-.78-3.17l-7.54-6.73c.66-1.24,1.34-2.43,2.06-3.56L72.52,102a3,3,0,0,0,3.17-.91,41.33,41.33,0,0,1,5.81-5.72,2.87,2.87,0,0,0,.93-3.13l-3.11-9.53c1.14-.7,2.34-1.38,3.6-2l6.84,7.43a3,3,0,0,0,3.22.76,41.27,41.27,0,0,1,7.89-2.08,2.9,2.9,0,0,0,2.4-2.24l2.16-9.84a41.23,41.23,0,0,1,4.16,0l2.16,9.84a2.93,2.93,0,0,0,2.4,2.24,41.76,41.76,0,0,1,7.9,2.08,3,3,0,0,0,3.21-.76l6.84-7.43c1.26.65,2.46,1.32,3.6,2l-3.11,9.53a2.88,2.88,0,0,0,.93,3.13,41.33,41.33,0,0,1,5.81,5.72,3,3,0,0,0,3.17.92l9.68-3.07c.71,1.12,1.4,2.31,2,3.55l-7.54,6.73a2.86,2.86,0,0,0-.78,3.17,39.56,39.56,0,0,1,2.11,7.78,2.92,2.92,0,0,0,2.28,2.36l10,2.12c0,.68.06,1.37.06,2.06s0,1.37-.06,2l-10,2.12A2.92,2.92,0,0,0,148,133.2a39.84,39.84,0,0,1-2.11,7.79,2.86,2.86,0,0,0,.78,3.16l7.54,6.73c-.66,1.24-1.34,2.43-2,3.56l-9.68-3.07a2.93,2.93,0,0,0-3.17.92,41.34,41.34,0,0,1-5.81,5.72,2.86,2.86,0,0,0-.93,3.12l3.11,9.53c-1.14.7-2.34,1.38-3.6,2l-6.83-7.43a3,3,0,0,0-3.22-.76,41.37,41.37,0,0,1-7.9,2.08,2.93,2.93,0,0,0-2.4,2.24l-2.15,9.84a38.67,38.67,0,0,1-4.17,0l-2.15-9.84a2.93,2.93,0,0,0-2.4-2.24,41.37,41.37,0,0,1-7.9-2.08,3,3,0,0,0-3.22.76l-6.83,7.43c-1.26-.65-2.47-1.32-3.61-2l3.12-9.53A2.87,2.87,0,0,0,81.5,158a40.72,40.72,0,0,1-5.8-5.72,3,3,0,0,0-3.18-.92l-9.67,3.07c-.72-1.12-1.4-2.31-2.06-3.55l7.55-6.73a2.87,2.87,0,0,0,.77-3.17A39.56,39.56,0,0,1,67,133.2a2.9,2.9,0,0,0-2.28-2.36l-10-2.12c0-.68-.06-1.36-.06-2s0-1.38.06-2Zm0,0"/><path class="cls-1" d="M202.09,52.16a2.89,2.89,0,0,0,2-2.42,31.52,31.52,0,0,0,0-8.08,2.89,2.89,0,0,0-2-2.42L194,36.72c-.25-.66-.52-1.3-.81-1.93l3.94-7.45a2.84,2.84,0,0,0-.3-3.13A34.94,34.94,0,0,0,191,18.49a3,3,0,0,0-3.18-.3l-7.56,3.88c-.64-.29-1.3-.55-2-.79l-2.56-8a2.92,2.92,0,0,0-2.46-2,32.15,32.15,0,0,0-8.2,0,2.9,2.9,0,0,0-2.46,2l-2.56,8c-.67.24-1.32.5-2,.8l-7.56-3.89a3,3,0,0,0-3.18.3,35.33,35.33,0,0,0-5.81,5.72,2.84,2.84,0,0,0-.3,3.13l3.94,7.45c-.3.63-.57,1.27-.81,1.93l-8.14,2.52a2.89,2.89,0,0,0-2,2.42,31.52,31.52,0,0,0,0,8.08,2.89,2.89,0,0,0,2,2.42l8.14,2.52c.24.66.51,1.3.81,1.93l-3.94,7.45a2.84,2.84,0,0,0,.3,3.13,35.27,35.27,0,0,0,5.8,5.72,3,3,0,0,0,3.18.3l7.56-3.88c.64.29,1.3.55,2,.79l2.56,8a2.93,2.93,0,0,0,2.46,2,33.83,33.83,0,0,0,8.21,0,2.93,2.93,0,0,0,2.46-2l2.56-8c.66-.24,1.32-.51,2-.8l7.56,3.88a3,3,0,0,0,3.18-.29,35.66,35.66,0,0,0,5.8-5.72,2.86,2.86,0,0,0,.31-3.14l-4-7.44c.3-.63.57-1.28.81-1.93Zm-11.33-2.55a2.89,2.89,0,0,0-1.93,1.93,20.53,20.53,0,0,1-1.57,3.74,2.84,2.84,0,0,0,0,2.7L191,65a28.13,28.13,0,0,1-2.2,2.17l-7.14-3.67a3,3,0,0,0-2.75,0,21.17,21.17,0,0,1-3.8,1.55,2.93,2.93,0,0,0-2,1.9l-2.42,7.59a26.54,26.54,0,0,1-3.09,0L165.19,67a2.89,2.89,0,0,0-2-1.9,21.37,21.37,0,0,1-3.79-1.55,3,3,0,0,0-2.75,0l-7.14,3.67a28.16,28.16,0,0,1-2.2-2.17l3.72-7a2.81,2.81,0,0,0,0-2.7,21.23,21.23,0,0,1-1.56-3.74,2.93,2.93,0,0,0-1.93-1.93l-7.71-2.39c0-.53,0-1,0-1.52s0-1,0-1.52l7.71-2.39a2.93,2.93,0,0,0,1.93-1.93,20.92,20.92,0,0,1,1.56-3.74,2.81,2.81,0,0,0,0-2.7l-3.72-7a28,28,0,0,1,2.2-2.16l7.14,3.66a3,3,0,0,0,2.75,0,20.65,20.65,0,0,1,3.79-1.55,2.91,2.91,0,0,0,2-1.9l2.42-7.59a26.55,26.55,0,0,1,3.09,0l2.42,7.59a2.93,2.93,0,0,0,2,1.9,20.46,20.46,0,0,1,3.8,1.55,3,3,0,0,0,2.75,0l7.14-3.66a29.91,29.91,0,0,1,2.2,2.16l-3.73,7a2.87,2.87,0,0,0,0,2.7,20.53,20.53,0,0,1,1.57,3.74,2.91,2.91,0,0,0,1.93,1.93l7.7,2.39c0,.53,0,1,0,1.52s0,1,0,1.52Zm0,0"/><path class="cls-1" d="M222.77,106.32l-5-1.76a24.66,24.66,0,0,0-1-2.37L219,97.44a2.84,2.84,0,0,0-.34-3,29.33,29.33,0,0,0-5.05-5,3,3,0,0,0-3.07-.34l-4.83,2.26a21.72,21.72,0,0,0-2.39-1l-1.8-5a3,3,0,0,0-2.41-1.91,28.36,28.36,0,0,0-7.13,0,3,3,0,0,0-2.41,1.91l-1.79,5a22.71,22.71,0,0,0-2.4,1l-4.83-2.26a3,3,0,0,0-3.06.34,28.62,28.62,0,0,0-5.05,5,2.86,2.86,0,0,0-.34,3l2.29,4.76a21.3,21.3,0,0,0-1,2.36l-5.05,1.77a2.9,2.9,0,0,0-1.93,2.37,25.79,25.79,0,0,0,0,7,2.88,2.88,0,0,0,1.93,2.37l5,1.77a25.59,25.59,0,0,0,1,2.36L172.13,127a2.82,2.82,0,0,0,.34,3,29,29,0,0,0,5.05,5,3,3,0,0,0,3.06.33l4.84-2.26a21.77,21.77,0,0,0,2.39,1l1.79,5a3,3,0,0,0,2.42,1.91,27.67,27.67,0,0,0,7.12,0,2.91,2.91,0,0,0,2.41-1.9l1.79-5a21.88,21.88,0,0,0,2.4-1l4.83,2.26a3,3,0,0,0,3.07-.34,29.68,29.68,0,0,0,5.05-5,2.88,2.88,0,0,0,.34-3l-2.3-4.76a21.35,21.35,0,0,0,1-2.36l5-1.77a2.88,2.88,0,0,0,1.93-2.37,26.78,26.78,0,0,0,.25-3.51,28.36,28.36,0,0,0-.24-3.51,2.9,2.9,0,0,0-1.93-2.38ZM219,113.26l-4.66,1.63a2.91,2.91,0,0,0-1.84,2,17,17,0,0,1-1.64,3.9,2.88,2.88,0,0,0-.09,2.66l2.11,4.38c-.49.52-1,1-1.53,1.5l-4.45-2.07a3,3,0,0,0-2.7.09,17.52,17.52,0,0,1-4,1.61,2.91,2.91,0,0,0-2,1.82l-1.66,4.58a19.1,19.1,0,0,1-2.14,0l-1.65-4.58a2.91,2.91,0,0,0-2-1.82,17.41,17.41,0,0,1-4-1.61,3,3,0,0,0-2.7-.09l-4.44,2.07q-.81-.72-1.53-1.5l2.1-4.38a2.82,2.82,0,0,0-.09-2.66,17,17,0,0,1-1.63-3.89,3,3,0,0,0-1.85-2l-4.65-1.63c0-.35,0-.7,0-1.05s0-.71,0-1.06l4.66-1.63a2.87,2.87,0,0,0,1.84-2,17.66,17.66,0,0,1,1.63-3.9,2.85,2.85,0,0,0,.1-2.66l-2.11-4.37c.49-.53,1-1,1.53-1.51l4.44,2.08a3,3,0,0,0,2.71-.1,17,17,0,0,1,4-1.6,3,3,0,0,0,2-1.82l1.66-4.59a19.1,19.1,0,0,1,2.14,0l1.65,4.59a3,3,0,0,0,2,1.82,17.38,17.38,0,0,1,4,1.6,3,3,0,0,0,2.7.1l4.44-2.08a19.83,19.83,0,0,1,1.53,1.51L210.8,101a2.85,2.85,0,0,0,.1,2.66,16.93,16.93,0,0,1,1.63,3.9,2.91,2.91,0,0,0,1.85,2l4.65,1.63c0,.35,0,.7,0,1.06s0,.7,0,1.05Zm0,0"/><path class="cls-1" d="M107.51,158.47c17.81,0,32.29-14.27,32.29-31.8s-14.48-31.81-32.29-31.81-32.29,14.27-32.29,31.81,14.49,31.8,32.29,31.8Zm0-57.83a26,26,0,1,1-26.42,26,26.26,26.26,0,0,1,26.42-26Zm0,0"/><path class="cls-1" d="M48.86,78.54l4.51,3.71a70.73,70.73,0,0,1,54.14-25c1.5,0,3,.08,4.48.17L108.37,61l4.15,4.09,8.81-8.67a2.86,2.86,0,0,0,0-4.09l-8.81-8.68-4.15,4.09,4,3.93c-1.61-.1-3.23-.19-4.85-.19A76.67,76.67,0,0,0,48.86,78.54Zm0,0"/><path class="cls-1" d="M169.16,31.24A14.46,14.46,0,1,0,183.84,45.7a14.59,14.59,0,0,0-14.68-14.46Zm0,23.13A8.68,8.68,0,1,1,178,45.7a8.75,8.75,0,0,1-8.81,8.67Zm0,0"/><path class="cls-1" d="M195.58,100.64a11.57,11.57,0,1,0,11.74,11.57,11.66,11.66,0,0,0-11.74-11.57Zm0,17.35a5.79,5.79,0,1,1,5.87-5.78,5.83,5.83,0,0,1-5.87,5.78Zm0,0"/><path class="cls-1" d="M222.57,19.73,207.9,16.84a2.93,2.93,0,0,0-3.46,2.27l-2.93,14.46,5.75,1.13,1.58-7.78a42.83,42.83,0,0,1-5.3,45.89l4.58,3.62a48.63,48.63,0,0,0,5.79-52.51l7.51,1.48Zm0,0"/></svg>