<svg id="Capa_1" enable-background="new 0 0 512 512" height="512" viewBox="0 0 512 512" width="512" xmlns="http://www.w3.org/2000/svg"><g><path d="m497 422h-196v-107c0-63.411-51.589-115-115-115-5.157 0-10.234.347-15.213 1.008l-28.449-61.008h198.662v55c0 8.284 6.716 15 15 15h15v45c0 8.284 6.716 15 15 15h15v65c0 8.284 6.716 15 15 15s15-6.716 15-15v-65h15c8.284 0 15-6.716 15-15v-45h15c8.284 0 15-6.716 15-15v-160c0-19.299-15.701-35-35-35h-80c-17.601 0-32.203 13.062-34.637 30h-285.363c-30.327 0-55 24.673-55 55 0 8.306 1.861 16.183 5.172 23.25l-.01.003 74.696 160.185c-6.332 14.243-9.858 29.997-9.858 46.562v107h-56c-8.284 0-15 6.716-15 15v60c0 8.284 6.716 15 15 15h482c8.284 0 15-6.716 15-15v-60c0-8.284-6.716-15-15-15zm-66-182h-30v-30h30zm-60-205c0-2.757 2.243-5 5-5h80c2.757 0 5 2.243 5 5v25h-25c-8.284 0-15 6.716-15 15s6.716 15 15 15h25v30h-25c-8.284 0-15 6.716-15 15s6.716 15 15 15h25v30h-90zm-185 195c46.869 0 85 38.131 85 85v107h-170v-107c0-46.869 38.131-85 85-85zm155-170v50h-212.651s-23.083-49.412-23.384-50zm-310 25c0-13.785 11.215-25 25-25s25 11.215 25 25-11.215 25-25 25-25-11.215-25-25zm23.045 54.95c.65.023 1.3.05 1.955.05 17.594 0 33.273-8.314 43.347-21.208l42.064 90.206c-15.919 6.721-30.015 16.932-41.337 29.662zm427.955 342.05h-452v-30h452z"/><path d="m186 370c30.327 0 55-24.673 55-55s-24.673-55-55-55-55 24.673-55 55 24.673 55 55 55zm0-80c13.785 0 25 11.215 25 25s-11.215 25-25 25-25-11.215-25-25 11.215-25 25-25z"/></g></svg>