<svg id="Layer_1" data-name="Layer 1" xmlns="http://www.w3.org/2000/svg" viewBox="0 0 261.63 194.5"><defs><style>.cls-1{fill:#52bfa7;stroke:#52bfa7;stroke-miterlimit:10;}</style></defs><path class="cls-1" d="M53.48,169.16V138.33l6.66-4.44H70.85V128.1H58.39l-10.7,7.13v33.93a8.69,8.69,0,1,0,5.79,0Zm-2.9,11.05a2.9,2.9,0,1,1,2.9-2.9A2.89,2.89,0,0,1,50.58,180.21Z"/><path class="cls-1" d="M55.84,122.31h15v-5.79h-15a8.69,8.69,0,1,0,0,5.79Zm-11.05-2.9a2.9,2.9,0,1,1,2.9,2.9A2.89,2.89,0,0,1,44.79,119.41Z"/><path class="cls-1" d="M47.69,104.94a8.68,8.68,0,0,0,8.15-5.79h15v-5.8h-15a8.67,8.67,0,1,0-8.15,11.59Zm0-11.59a2.9,2.9,0,1,1-2.9,2.9A2.9,2.9,0,0,1,47.69,93.35Z"/><rect class="cls-1" x="59.27" y="104.94" width="11.58" height="5.79"/><rect class="cls-1" x="59.27" y="81.77" width="11.58" height="5.79"/><rect class="cls-1" x="39" y="70.19" width="31.85" height="5.79"/><path class="cls-1" d="M61,64.4h9.89V58.61H63.36l-7-7V46.5a8.69,8.69,0,1,0-5.79,0V54ZM53.48,35.45a2.9,2.9,0,1,1-2.9,2.9A2.9,2.9,0,0,1,53.48,35.45Z"/><polygon class="cls-1" points="91.11 30.86 91.11 38.35 96.9 38.35 96.9 28.46 86.52 18.08 39 18.08 39 23.87 84.12 23.87 91.11 30.86"/><polygon class="cls-1" points="102.69 19.28 102.69 38.35 108.48 38.35 108.48 16.88 98.1 6.5 39 6.5 39 12.29 95.7 12.29 102.69 19.28"/><rect class="cls-1" x="114.27" y="26.77" width="5.79" height="11.58"/><rect class="cls-1" x="149.02" y="6.5" width="5.79" height="31.85"/><path class="cls-1" d="M125.85,23.34v15h5.8V28l5.79,5.8v4.59h5.79v-7L134,22.09a8.68,8.68,0,1,0-8.11,1.25Zm2.9-11a2.9,2.9,0,1,1-2.9,2.9A2.9,2.9,0,0,1,128.75,12.29Z"/><path class="cls-1" d="M166.39,25.07l7-7h28.28a8.72,8.72,0,0,0,5.26,5.26V63.2l-7,7H186.65V76h15.68L212.71,65.6V23.34a8.67,8.67,0,1,0-11.05-11H171L160.6,22.67V38.35h5.79Zm43.42-12.78a2.9,2.9,0,1,1-2.89,2.9A2.9,2.9,0,0,1,209.81,12.29Z"/><path class="cls-1" d="M188.85,41.75l6.49,6.48v3.39l-7,7h-1.7V64.4h4.1L201.13,54V45.83L190.75,35.45H189a8.65,8.65,0,1,0-.17,6.3Zm-8-.51a2.9,2.9,0,1,1,2.9-2.89A2.89,2.89,0,0,1,180.86,41.24Z"/><rect class="cls-1" x="186.65" y="81.77" width="31.85" height="5.79"/><path class="cls-1" d="M212.71,169.16V103.74L202.33,93.35H186.65v5.8h13.28l7,7v15l-4.59-4.59H186.65v5.79h13.28l7,7v39.86a8.69,8.69,0,1,0,5.79,0Zm-2.9,11.05a2.9,2.9,0,1,1,2.9-2.9A2.9,2.9,0,0,1,209.81,180.21Z"/><rect class="cls-1" x="186.65" y="104.94" width="11.58" height="5.79"/><path class="cls-1" d="M201.13,138.48,190.75,128.1h-4.1v5.79h1.7l7,7v16.17h-29v-2.9H160.6v8.69h34.74v4.59l-7,7h-5.12a8.69,8.69,0,1,0,0,5.79h7.52l10.38-10.38Zm-26.06,41.73a2.9,2.9,0,1,1,2.9-2.9A2.89,2.89,0,0,1,175.07,180.21Z"/><path class="cls-1" d="M96.9,154.15H91.11v2.9h-15a8.69,8.69,0,1,0,0,5.79H96.9ZM68,162.84a2.9,2.9,0,1,1,2.9-2.9A2.89,2.89,0,0,1,68,162.84Z"/><rect class="cls-1" x="149.02" y="154.15" width="5.79" height="31.85"/><rect class="cls-1" x="137.44" y="154.15" width="5.79" height="31.85"/><path class="cls-1" d="M125.85,158.74l-5.79,5.8V154.15h-5.79v15a8.69,8.69,0,1,0,8.11,1.25l9.27-9.27v-7h-5.8Zm-8.68,21.47a2.9,2.9,0,1,1,2.89-2.9A2.9,2.9,0,0,1,117.17,180.21Z"/><polygon class="cls-1" points="108.48 154.15 102.69 154.15 102.69 161.64 94.01 170.33 94.01 186 99.8 186 99.8 172.72 108.48 164.04 108.48 154.15"/><path class="cls-1" d="M160.6,148.36h5.79v-5.79h8.68v-8.68h5.79V128.1h-5.79v-5.79h5.79v-5.79h-5.79v-5.79h5.79v-5.79h-5.79V99.15h5.79v-5.8h-5.79V87.56h5.79V81.77h-5.79V76h5.79V70.19h-5.79V64.4h5.79V58.61h-5.79V49.93h-8.68V44.14H160.6v5.79h-5.79V44.14H149v5.79h-5.79V44.14h-5.79v5.79h-5.79V44.14h-5.8v5.79h-5.79V44.14h-5.79v5.79h-5.79V44.14h-5.79v5.79H96.9V44.14H91.11v5.79h-1.2l-7.48,7.48v1.2H76.64V64.4h5.79v5.79H76.64V76h5.79v5.79H76.64v5.79h5.79v5.79H76.64v5.8h5.79v5.79H76.64v5.79h5.79v5.79H76.64v5.79h5.79v5.79H76.64v5.79h5.79v8.68h8.68v5.79H96.9v-5.79h5.79v5.79h5.79v-5.79h5.79v5.79h5.79v-5.79h5.79v5.79h5.8v-5.79h5.79v5.79h5.79v-5.79H149v5.79h5.79v-5.79h5.79ZM88.22,136.78v-77l4.09-4.09h77v81.06Z"/><path class="cls-1" d="M154.4,82.88l5.06-5L147.17,65.54l-5,5.06a28.54,28.54,0,0,0-4.68-1.95V61.51H120.06v7.14a28.54,28.54,0,0,0-4.68,1.95l-5-5.06L98,77.83l5.06,5a28.54,28.54,0,0,0-1.95,4.68H94v17.38h7.14a28.54,28.54,0,0,0,1.95,4.68l-5.06,5L110.33,127l5-5.06a28.54,28.54,0,0,0,4.68,1.95V131h17.38v-7.14a28.54,28.54,0,0,0,4.68-1.95l5,5.06,12.29-12.29-5.06-5a28.54,28.54,0,0,0,1.95-4.68h7.14V87.56h-7.14A28.54,28.54,0,0,0,154.4,82.88Zm3.3,16.27h-5.87l-.51,2.25a22.85,22.85,0,0,1-3,7.16l-1.23,2,4.16,4.16-4.09,4.09L143,114.61l-2,1.23a22.85,22.85,0,0,1-7.16,3l-2.25.51v5.87h-5.8v-5.87l-2.25-.51a22.85,22.85,0,0,1-7.16-3l-2-1.23-4.16,4.16-4.09-4.09,4.16-4.16-1.23-2a22.85,22.85,0,0,1-3-7.16l-.51-2.25H99.8v-5.8h5.87l.51-2.25a22.85,22.85,0,0,1,3-7.16l1.23-2-4.16-4.16,4.09-4.09,4.16,4.16,2-1.24a23.06,23.06,0,0,1,7.16-3l2.25-.51V67.3h5.8v5.87l2.25.51a22.85,22.85,0,0,1,7.16,3l2,1.23,4.16-4.16,4.09,4.1L147.11,82l1.23,2a23,23,0,0,1,3,7.17l.51,2.24h5.87Z"/><path class="cls-1" d="M128.75,81.77a14.48,14.48,0,1,0,14.48,14.48A14.5,14.5,0,0,0,128.75,81.77Zm0,23.17a8.69,8.69,0,1,1,8.69-8.69A8.7,8.7,0,0,1,128.75,104.94Z"/></svg>