<svg id="Layer_1" data-name="Layer 1" xmlns="http://www.w3.org/2000/svg" viewBox="0 0 261.63 194.5"><defs><style>.cls-1{fill:#52bfa7;stroke:#52bfa7;stroke-miterlimit:10;}</style></defs><path class="cls-1" d="M177.4,128.12H51.11v11.23h5.62v-5.62h5.61v5.62H68v-5.62h5.61v5.62h5.62v-5.62h5.61v5.62H90.4v-5.62H96v5.62h5.61v-5.62h5.61v5.62h5.61v-5.62h5.62v5.62h5.61v-5.62h5.61v5.62h5.62v-5.62h5.61v5.62h5.61v-5.62h5.62v5.62h5.61v-5.62h5.61v5.62H169v-5.62h5.62v5.62h5.61v-5.42a22.41,22.41,0,0,1,5.9,1.56l-2.72,4.71,4.86,2.8,2.7-4.67a22.5,22.5,0,0,1,4.31,4.3l-4.68,2.71,2.81,4.86,4.71-2.72a22.41,22.41,0,0,1,1.56,5.9h-5.42V159h5.42a22.31,22.31,0,0,1-1.56,5.9l-4.71-2.72L190.58,167l4.68,2.7a22.56,22.56,0,0,1-4.31,4.31l-2.7-4.68-4.86,2.8,2.72,4.71a22,22,0,0,1-5.9,1.56V173H174.6v5.62H169V173h-5.61v5.62h-5.61V173h-5.61v5.62h-5.62V173h-5.61v5.62h-5.61V173h-5.62v5.62h-5.61V173h-5.61v5.62h-5.62V173h-5.61v5.62h-5.61V173H96v5.62H90.4V173H84.79v5.62H79.18V173H73.56v5.62H68V173H62.34v5.62H56.73V173H51.11v11.23H177.4a28.07,28.07,0,1,0,0-56.13Z"/><path class="cls-1" d="M76.37,167.41a11.23,11.23,0,1,0-11.22-11.22A11.24,11.24,0,0,0,76.37,167.41Zm0-16.84a5.62,5.62,0,1,1-5.61,5.62A5.62,5.62,0,0,1,76.37,150.57Z"/><path class="cls-1" d="M110.05,167.41a11.23,11.23,0,1,0-11.23-11.22A11.23,11.23,0,0,0,110.05,167.41Zm0-16.84a5.62,5.62,0,1,1-5.61,5.62A5.62,5.62,0,0,1,110.05,150.57Z"/><path class="cls-1" d="M143.73,167.41a11.23,11.23,0,1,0-11.23-11.22A11.23,11.23,0,0,0,143.73,167.41Zm0-16.84a5.62,5.62,0,1,1-5.62,5.62A5.62,5.62,0,0,1,143.73,150.57Z"/><path class="cls-1" d="M177.4,167.41a11.23,11.23,0,1,0-11.22-11.22A11.24,11.24,0,0,0,177.4,167.41Zm0-16.84a5.62,5.62,0,1,1-5.61,5.62A5.62,5.62,0,0,1,177.4,150.57Z"/><path class="cls-1" d="M76.37,100.06H82V116.9h28.07V100.06h5.61V86h11.23V49.54H104.44V43.93h2.8a14,14,0,0,0,14-14V27.09a14.05,14.05,0,0,0-11.22-13.75V10.25h-5.61v8.42H87.6V10.25H82v14H87.6V49.54H65.15V86H76.37Zm28.07-75.78h5.61V19.19a8.39,8.39,0,0,1,5.61,7.9V29.9a8.42,8.42,0,0,1-8.42,8.41h-2.8Zm0,87H87.6V100.06h16.84Zm5.61-28.06V94.44H82V77.6h28.07Zm0-11.23H82V66.38h28.07ZM93.21,24.28h5.61V49.54H93.21ZM70.76,80.41V55.15h50.51V80.41h-5.61V60.77H76.37V80.41Z"/><rect class="cls-1" x="87.6" y="83.22" width="5.61" height="5.61"/><rect class="cls-1" x="98.82" y="83.22" width="5.61" height="5.61"/><path class="cls-1" d="M202.66,49.54V43.93h2.81a14,14,0,0,0,14-14V27.09a14.05,14.05,0,0,0-11.23-13.75V10.25h-5.61v8.42H185.82V10.25h-5.61v14h5.61V49.54H163.37V86H174.6V116.9h39.29V86h11.22V49.54Zm0-25.26h5.61V19.19a8.4,8.4,0,0,1,5.62,7.9V29.9a8.42,8.42,0,0,1-8.42,8.41h-2.81Zm-11.22,0h5.61V49.54h-5.61Zm16.83,87H180.21v-14h5.61v5.61h5.62V97.25h5.61v5.61h5.61V97.25h5.61Zm0-28.06v8.42h-5.61V86h-5.61v5.62h-5.61V86h-5.62v5.62h-5.61v-14h28.06Zm0-11.23H180.21V66.38h28.06Zm11.23,8.42h-5.61V60.77H174.6V80.41H169V55.15H219.5Z"/></svg>