<svg id="Layer_1" data-name="Layer 1" xmlns="http://www.w3.org/2000/svg" viewBox="0 0 261.63 194.5"><defs><style>.cls-1{fill:#52bfa7;stroke:#52bfa7;stroke-miterlimit:10;}</style></defs><path class="cls-1" d="M225,150H160.15V114.53a38.12,38.12,0,0,0-38.07-38.07,39.87,39.87,0,0,0-5,.33L107.62,56.6h65.77V74.81a5,5,0,0,0,5,5h5v14.9a5,5,0,0,0,5,5h5v21.52a5,5,0,1,0,9.93,0V99.63h5a5,5,0,0,0,5-5V79.77h5a5,5,0,0,0,5-5v-53a11.6,11.6,0,0,0-11.59-11.59H185a11.6,11.6,0,0,0-11.47,9.93H79a18.21,18.21,0,0,0-16.5,25.91h0l24.73,53A37.77,37.77,0,0,0,84,114.53V150H65.47a5,5,0,0,0-5,5v19.86a5,5,0,0,0,5,5H225a5,5,0,0,0,5-5V154.92A5,5,0,0,0,225,150ZM203.18,89.7h-9.93V79.77h9.93ZM183.32,21.84A1.66,1.66,0,0,1,185,20.18h26.48a1.66,1.66,0,0,1,1.66,1.66v8.27h-8.28a5,5,0,1,0,0,9.93h8.28V50h-8.28a5,5,0,1,0,0,9.93h8.28v9.93h-29.8ZM122.08,86.39a28.18,28.18,0,0,1,28.14,28.14V150H93.94V114.53A28.17,28.17,0,0,1,122.08,86.39Zm51.31-56.28V46.67H103s-7.64-16.36-7.74-16.56ZM70.76,38.39A8.28,8.28,0,1,1,79,46.67,8.3,8.3,0,0,1,70.76,38.39Zm7.63,18.19.65,0a18.19,18.19,0,0,0,14.35-7l13.92,29.86a38.23,38.23,0,0,0-13.68,9.82ZM220.07,169.82H70.43v-9.93H220.07Z"/><path class="cls-1" d="M122.08,132.74a18.21,18.21,0,1,0-18.21-18.21A18.22,18.22,0,0,0,122.08,132.74Zm0-26.48a8.28,8.28,0,1,1-8.28,8.27A8.28,8.28,0,0,1,122.08,106.26Z"/></svg>