<svg id="Layer_1" enable-background="new 0 0 512 512" height="512" viewBox="0 0 512 512" width="512" xmlns="http://www.w3.org/2000/svg"><g clip-rule="evenodd" fill-rule="evenodd"><circle cx="406.705" cy="256" r="15"/><circle cx="205.768" cy="256" r="15"/><circle cx="306.241" cy="430.017" r="15"/><circle cx="306.232" cy="81.982" r="15"/><circle cx="105.295" cy="81.982" r="15"/><path d="m406.705 174.018c-47.274 0-51.442 33.137-100.468 33.137-5.155 0-9.807-.371-14.073-1.027 1.564-4.022 3.559-8.234 6.137-12.7 12.606-21.835 26.869-29.027 40.967-36.418 28.798-12.715 48.947-41.572 48.947-75.029-.001-45.204-36.778-81.981-81.983-81.981-47.274 0-51.442 33.137-100.468 33.137s-53.194-33.137-100.469-33.137c-45.205 0-81.982 36.777-81.982 81.982s36.777 81.982 81.982 81.982c47.274 0 51.442-33.137 100.468-33.137 5.155 0 9.808.37 14.073 1.026-1.564 4.023-3.559 8.235-6.137 12.701-12.606 21.835-26.869 29.027-40.967 36.418-28.798 12.715-48.947 41.572-48.947 75.029 0 45.205 36.777 81.982 81.982 81.982 47.274 0 51.442-33.137 100.468-33.137 5.16 0 9.818.371 14.087 1.028-1.565 4.032-3.567 8.255-6.152 12.732-24.512 42.458-55.294 29.5-78.93 70.441-22.602 39.149-9.139 89.387 30.01 111.989 39.149 22.601 89.387 9.139 111.988-30.01 23.636-40.941-2.978-61.119 21.534-103.577 12.606-21.835 26.87-29.027 40.967-36.418 28.798-12.715 48.946-41.572 48.946-75.029.002-45.207-36.775-81.984-81.98-81.984zm-200.941-73.192c-33.439 0-53.011 12.399-67.302 21.452-11.503 7.287-18.446 11.686-33.166 11.686-28.663 0-51.982-23.319-51.982-51.982-.001-28.663 23.318-51.982 51.981-51.982 14.72 0 21.663 4.398 33.166 11.686 14.291 9.053 33.863 21.452 67.302 21.452 33.438 0 53.011-12.398 67.303-21.452 11.503-7.288 18.447-11.686 33.166-11.686 28.663 0 51.981 23.319 51.981 51.981 0 28.663-23.318 51.982-51.981 51.982-14.72 0-21.663-4.398-33.166-11.686-14.291-9.052-33.863-21.451-67.302-21.451zm78.614 60.297c-4.145 4.929-8.203 10.628-12.059 17.306-3.506 6.073-6.231 11.888-8.348 17.446-11.719-6.759-21.539-14.828-36.35-19.016 4.145-4.929 8.203-10.628 12.059-17.306 3.506-6.073 6.232-11.889 8.348-17.447 11.719 6.76 21.539 14.828 36.35 19.017zm88.414 191.324c-16.719 28.959-15.767 52.109-15.072 69.012.559 13.606.897 21.818-6.462 34.565-14.331 24.823-46.185 33.359-71.008 19.028s-33.359-46.185-19.028-71.008c7.36-12.748 14.64-16.562 26.703-22.88 14.985-7.85 35.509-18.601 52.228-47.561 3.515-6.088 6.23-11.912 8.347-17.481 11.719 6.76 21.54 14.83 36.351 19.019-4.145 4.928-8.204 10.628-12.059 17.306zm33.913-44.466c-14.72 0-21.663-4.398-33.166-11.686-14.291-9.053-33.864-21.452-67.303-21.452s-53.011 12.399-67.302 21.452c-11.503 7.287-18.446 11.686-33.166 11.686-28.663 0-51.982-23.318-51.982-51.981s23.318-51.982 51.981-51.982c14.72 0 21.664 4.398 33.166 11.686 14.291 9.053 33.863 21.452 67.302 21.452 33.438 0 53.011-12.398 67.303-21.452 11.503-7.287 18.446-11.686 33.166-11.686 28.663 0 51.981 23.319 51.981 51.981.002 28.663-23.317 51.982-51.98 51.982z"/></g></svg>