<svg id="Layer_1" data-name="Layer 1" xmlns="http://www.w3.org/2000/svg" viewBox="0 0 214.85 259.5"><defs><style>.cls-1{fill:#494848;}.cls-2,.cls-4{fill:none;}.cls-2,.cls-3,.cls-4{stroke:#52bfa7;stroke-miterlimit:10;}.cls-2{stroke-width:6.06px;}.cls-3{fill:#52bfa7;stroke-width:1.17px;}.cls-4{stroke-width:6px;opacity:0.75;}</style></defs><path class="cls-1" d="M39.13,221.19v2.61H27.7v27H25.13v-27H13.61v-2.61Z"/><path class="cls-1" d="M43.13,250.84V221.19H60.32v2.61H45.7v8.32h9.85v2.61H45.7v13.5H61.31v2.61Z"/><path class="cls-1" d="M89.12,247.06a18.74,18.74,0,0,1-5,3,14.85,14.85,0,0,1-11.38-.15A15.69,15.69,0,0,1,68,246.64a15.06,15.06,0,0,1-3.22-4.8,15.31,15.31,0,0,1,0-11.74A15.26,15.26,0,0,1,68,225.28,15,15,0,0,1,72.79,222a14.52,14.52,0,0,1,5.89-1.19,13.91,13.91,0,0,1,4.86.9,20.55,20.55,0,0,1,4.82,2.61l-2,1.62a13.11,13.11,0,0,0-7.65-2.52,12.1,12.1,0,0,0-4.88,1,12.74,12.74,0,0,0-4,2.67,12.55,12.55,0,0,0-2.68,4,12.34,12.34,0,0,0-1,4.91,11.93,11.93,0,0,0,1,4.83,13,13,0,0,0,2.68,4,12.46,12.46,0,0,0,4,2.69,12.1,12.1,0,0,0,4.88,1,11.87,11.87,0,0,0,4.53-.92A16.13,16.13,0,0,0,87.46,245Z"/><path class="cls-1" d="M106.22,250.84V221.19h8.08a8.41,8.41,0,0,1,3.46.72,8.88,8.88,0,0,1,2.82,2,9.71,9.71,0,0,1,1.93,2.92,8.88,8.88,0,0,1,.72,3.56,9.17,9.17,0,0,1-.69,3.55,9.44,9.44,0,0,1-1.89,2.9,8.68,8.68,0,0,1-2.8,2,8.41,8.41,0,0,1-3.46.72h-5.6v11.34Zm2.57-27v13.09h5.62a5.94,5.94,0,0,0,2.45-.51,6.28,6.28,0,0,0,2-1.4,6.75,6.75,0,0,0,1.33-2.07,6.54,6.54,0,0,0,.5-2.54,6.76,6.76,0,0,0-.5-2.57,6.38,6.38,0,0,0-1.35-2.09,6.56,6.56,0,0,0-2-1.4,6,6,0,0,0-2.45-.51Z"/><path class="cls-1" d="M128.05,250.84V221.19h17.19v2.61H130.61v8.32h9.86v2.61h-9.86v13.5h15.62v2.61Z"/><path class="cls-1" d="M152.48,239.55v11.29h-2.56V221.19h8.48A8.38,8.38,0,0,1,162,222a9.26,9.26,0,0,1,2.85,2.05,9.81,9.81,0,0,1,1.9,2.92,8.55,8.55,0,0,1,.7,3.4,10,10,0,0,1-.36,2.66,8.59,8.59,0,0,1-1.08,2.41,9,9,0,0,1-4,3.35l1.83,2.36,1.82,2.36,5.67,7.38H168l-8.73-11.29Zm0-15.75v13.14h5.92a6.46,6.46,0,0,0,2.55-.52A6.32,6.32,0,0,0,163,235a6.25,6.25,0,0,0,1.36-2.09,6.71,6.71,0,0,0,.5-2.56,6.68,6.68,0,0,0-1.86-4.64,6.22,6.22,0,0,0-2.05-1.42,6.45,6.45,0,0,0-2.55-.51Z"/><path class="cls-1" d="M186.86,251.16a11.79,11.79,0,0,1-4.66-.93,12.5,12.5,0,0,1-3.82-2.47,11.4,11.4,0,0,1-2.59-3.65,10.62,10.62,0,0,1-.95-4.43V221.19h2.57v18.49a8.31,8.31,0,0,0,.74,3.47,9.14,9.14,0,0,0,2,2.81,9.53,9.53,0,0,0,3,1.89,9.79,9.79,0,0,0,3.7.7,9.68,9.68,0,0,0,3.65-.7,9.53,9.53,0,0,0,3-1.89,8.73,8.73,0,0,0,2-2.81,8.47,8.47,0,0,0,.73-3.47V221.19h2.56v18.49a10.61,10.61,0,0,1-.94,4.43,11.66,11.66,0,0,1-2.57,3.65,12.31,12.31,0,0,1-3.78,2.47A11.48,11.48,0,0,1,186.86,251.16Z"/><path class="cls-2" d="M175.62,8.13h-142V48.89h47V176.26c2,1.2,27.55,24,27.55,24s21.44-22.81,23.45-24V48.89h44V34.11"/><ellipse class="cls-3" cx="175.63" cy="33.55" rx="6.75" ry="6.45"/><ellipse class="cls-3" cx="175.63" cy="8.13" rx="6.75" ry="6.45"/><path class="cls-4" d="M82.5,77.84c48.26,16,51,16,51,16"/><line class="cls-4" x1="82.5" y1="110.34" x2="133.5" y2="130.84"/><line class="cls-4" x1="82.5" y1="145.34" x2="133.5" y2="163.34"/></svg>